<svg width="33" height="33" viewBox="0 0 33 33" fill="none" xmlns="http://www.w3.org/2000/svg">
<path d="M5.75004 6.06667C4.75004 6.53333 4.13337 7.16667 3.68337 8.16667C3.35004 8.88333 3.33337 9.23333 3.33337 16.3333C3.33337 23.4333 3.35004 23.7833 3.68337 24.5C4.13337 25.5 4.75004 26.1333 5.75004 26.6L6.58337 27H16.6667C26.45 27 26.7667 26.9833 27.5 26.65C28.5 26.2 29.1334 25.5833 29.6 24.5833V24.5833C29.8633 24.0348 30 23.4341 30 22.8256V16.3333V9.84103C30 9.23256 29.8633 8.63188 29.6 8.08333V8.08333C29.1334 7.08333 28.5 6.46667 27.5 6.01667C26.7667 5.68333 26.45 5.66667 16.6667 5.66667H7.50773C6.89927 5.66667 6.29858 5.80337 5.75004 6.06667V6.06667ZM26.7667 8.1C27.45 8.6 27.8 9.16667 27.9167 9.93333L28.0167 10.6167L22.4167 13.6333C19.3334 15.3 16.75 16.6667 16.6834 16.6667C16.5334 16.6667 5.55004 10.7833 5.40004 10.6167C5.35004 10.5833 5.36671 10.2167 5.43337 9.81667C5.58337 8.93333 6.36671 8.03333 7.16671 7.83333C7.48337 7.75 11.9334 7.7 17.0334 7.71667C26.1167 7.75 26.3167 7.75 26.7667 8.1ZM11.3834 16.4C14.45 18.05 16.3667 19 16.6834 19C16.9834 19 19.1 17.95 22.5334 16.0833L27.9167 13.1833L27.9667 17.4667C28.0334 22.9667 27.9834 23.3833 27.1834 24.1833C26.6834 24.7 26.4167 24.8167 25.6667 24.9167C25.1667 24.9667 20.7667 25 15.8834 24.9667C7.23337 24.9167 7.01671 24.9167 6.56671 24.5667C6.31671 24.3833 5.95004 24.0167 5.76671 23.7667C5.43337 23.3333 5.41671 23.05 5.36671 18.2333L5.31671 13.15L5.95004 13.4667C6.30004 13.65 8.75004 14.9667 11.3834 16.4Z" fill="black"/>
</svg>
