<svg width="240" height="240" viewBox="0 0 240 240" fill="none" xmlns="http://www.w3.org/2000/svg">
<path d="M50 30C38.9844 30 30 38.9844 30 50V190C30 201.016 38.9844 210 50 210H190C201.016 210 210 201.016 210 190V50C210 38.9844 201.016 30 190 30H50ZM64.0625 76.875H90C113.008 76.875 116.875 91.0156 116.875 100C116.875 113.008 107.93 117.109 105.938 118.125C107.93 119.141 118.125 121.875 118.125 136.875C119.141 154.883 107.891 161.875 91.875 161.875H64.0625V76.875ZM134.062 76.875H170.938V86.875H134.062V76.875ZM80.9375 90.9375V111.875H90C96.0156 111.875 100 109.883 100 101.875C100 94.8828 96.9922 90.9375 90 90.9375H80.9375ZM155.938 98.125C169.922 98.125 180 106.055 180 129.062V135.938H145.938C145.938 138.945 146.133 150 158.125 150C166.133 150 169.883 146.055 171.875 144.062L179.062 154.062C178.047 155.078 171.133 163.125 158.125 163.125C143.125 163.125 130.938 155.078 130.938 134.062V129.062C130.938 106.055 142.93 98.125 155.938 98.125ZM154.062 110.938C151.055 110.938 145 112.07 145 124.062H161.875C161.875 124.062 164.062 110.938 154.062 110.938ZM80.9375 125V148.125H91.875C97.8906 148.125 100.938 143.867 100.938 136.875C101.953 128.867 99.1406 125 93.125 125H80.9375Z" fill="black"/>
</svg>
