<svg width="240" height="240" viewBox="0 0 240 240" fill="none" xmlns="http://www.w3.org/2000/svg">
<path d="M34.9998 66.3C43.7998 52.5 55.7998 41 70.0998 33C90.7998 39.8 113.3 53 130.6 72.7C101.6 83.3 67.5998 83.4 34.9998 66.3ZM64.2998 203.5C37.1998 185.6 19.2998 154.9 19.2998 120C19.2998 107.4 21.5998 95.3 25.9998 84.2C47.0998 95.2 68.6998 100.1 89.5998 100.1C108.4 100.1 126.5 96.2 143 89.4C146.7 95.4 149.9 102 152.5 109C143 112.4 133.6 116.9 124.7 122.4C93.9998 141.6 72.3998 170.6 64.2998 203.5ZM97.0998 22.5C104.2 20.9 111.7 20 119.3 20C142.1 20 163 27.6 179.8 40.4C171.3 49.6 161 57.7 149.5 64.1C134.7 45.7 115.9 31.9 97.0998 22.5ZM159.4 138.9C164 185.5 143.4 214.2 140.9 217.6C140.8 217.6 140.8 217.7 140.8 217.7C133.9 219.2 126.7 220 119.3 220C106.3 220 93.9998 217.5 82.5998 213C88.4998 183.2 107.5 156.6 135.2 139.4C142.5 134.8 150.1 131.1 157.9 128.3C158.5 131.7 159 135.3 159.4 138.9ZM219.2 123.4C218 158.8 198.5 189.6 169.7 206.4C176.3 190.4 182.3 166.8 179.3 136.9C178.8 132.1 178.1 127.4 177.2 122.9C191.6 120.1 205.9 120.2 219.2 123.4ZM171.9 103.6C168.9 95.4 165.3 87.7 161 80.6C173.7 73.3 185.1 64.3 194.4 54C206.3 67.5 214.6 84.2 217.8 102.7C203 100.1 187.4 100.4 171.9 103.6Z" fill="black"/>
</svg>
