<svg width="240" height="240" viewBox="0 0 240 240" fill="none" xmlns="http://www.w3.org/2000/svg">
<g clip-path="url(#clip0_2390_491)">
<path fill-rule="evenodd" clip-rule="evenodd" d="M119.702 22C64.5694 22 20 66.898 20 122.443C20 166.843 48.5571 204.427 88.1735 217.729C93.1265 218.729 94.9408 215.567 94.9408 212.908C94.9408 210.58 94.7775 202.598 94.7775 194.282C67.0429 200.269 61.2673 182.308 61.2673 182.308C56.8102 170.667 50.2061 167.676 50.2061 167.676C41.1286 161.522 50.8673 161.522 50.8673 161.522C60.9367 162.188 66.2204 171.833 66.2204 171.833C75.1327 187.131 89.4939 182.808 95.2714 180.147C96.0959 173.661 98.7388 169.171 101.545 166.678C79.4245 164.349 56.151 155.702 56.151 117.12C56.151 106.145 60.1102 97.1653 66.3837 90.1816C65.3939 87.6878 61.9265 77.3755 67.3755 63.5735C67.3755 63.5735 75.7939 60.9122 94.7755 73.8837C102.902 71.685 111.283 70.5666 119.702 70.5571C128.12 70.5571 136.702 71.7224 144.627 73.8837C163.61 60.9122 172.029 63.5735 172.029 63.5735C177.478 77.3755 174.008 87.6878 173.018 90.1816C179.457 97.1653 183.253 106.145 183.253 117.12C183.253 155.702 159.98 164.182 137.694 166.678C141.327 169.837 144.461 175.822 144.461 185.302C144.461 198.771 144.298 209.582 144.298 212.906C144.298 215.567 146.114 218.729 151.065 217.731C190.682 204.424 219.239 166.843 219.239 122.443C219.402 66.898 174.669 22 119.702 22Z" fill="black"/>
</g>
<defs>
<clipPath id="clip0_2390_491">
<rect width="200" height="195.918" fill="white" transform="translate(20 22)"/>
</clipPath>
</defs>
</svg>
