<svg width="240" height="240" viewBox="0 0 240 240" fill="none" xmlns="http://www.w3.org/2000/svg">
<path d="M80 30C52.39 30 30 52.39 30 80V160C30 187.61 52.39 210 80 210H160C187.61 210 210 187.61 210 160V80C210 52.39 187.61 30 160 30H80ZM180 50C185.52 50 190 54.48 190 60C190 65.52 185.52 70 180 70C174.48 70 170 65.52 170 60C170 54.48 174.48 50 180 50ZM120 70C147.61 70 170 92.39 170 120C170 147.61 147.61 170 120 170C92.39 170 70 147.61 70 120C70 92.39 92.39 70 120 70ZM120 90C112.044 90 104.413 93.1607 98.7868 98.7868C93.1607 104.413 90 112.044 90 120C90 127.956 93.1607 135.587 98.7868 141.213C104.413 146.839 112.044 150 120 150C127.956 150 135.587 146.839 141.213 141.213C146.839 135.587 150 127.956 150 120C150 112.044 146.839 104.413 141.213 98.7868C135.587 93.1607 127.956 90 120 90Z" fill="black"/>
</svg>
