<svg width="240" height="240" viewBox="0 0 240 240" fill="none" xmlns="http://www.w3.org/2000/svg">
<path d="M190 30H50C38.95 30 30 38.95 30 50V190C30 201.05 38.95 210 50 210H190C201.05 210 210 201.05 210 190V50C210 38.95 201.05 30 190 30ZM90 170H64.77V100H90V170ZM76.94 87.17C69.23 87.17 64.08 82.03 64.08 75.17C64.08 68.31 69.22 63.17 77.79 63.17C85.5 63.17 90.65 68.31 90.65 75.17C90.65 82.03 85.51 87.17 76.94 87.17ZM180 170H155.58V131.74C155.58 121.16 149.07 118.72 146.63 118.72C144.19 118.72 136.05 120.35 136.05 131.74C136.05 133.37 136.05 170 136.05 170H110.82V100H136.05V109.77C139.3 104.07 145.81 100 158.02 100C170.23 100 180 109.77 180 131.74V170Z" fill="black"/>
</svg>
