<svg width="24" height="24" viewBox="0 0 24 24" fill="none" xmlns="http://www.w3.org/2000/svg">
<path d="M15.8099 20.18C15.5499 20.18 15.2799 20.17 14.9899 20.14C14.4699 20.1 13.88 20 13.27 19.85L11.59 19.45C6.97995 18.36 5.46995 15.92 6.54995 11.32L7.52995 7.13C7.74995 6.18 8.00995 5.41 8.32995 4.77C10.0499 1.22 13.3399 1.54 15.6799 2.09L17.3499 2.48C19.6899 3.03 21.1699 3.9 21.9999 5.23C22.8199 6.56 22.95 8.27 22.4 10.61L21.4199 14.79C20.5599 18.45 18.7699 20.18 15.8099 20.18ZM13.1199 3.25C11.4499 3.25 10.3899 3.94 9.67995 5.42C9.41995 5.96 9.18995 6.63 8.98995 7.47L8.00995 11.66C7.11995 15.44 8.14995 17.09 11.93 17.99L13.6099 18.39C14.1499 18.52 14.6599 18.6 15.1199 18.64C17.8399 18.91 19.19 17.72 19.95 14.45L20.9299 10.27C21.3799 8.34 21.3199 6.99 20.7199 6.02C20.1199 5.05 18.9399 4.39 16.9999 3.94L15.3299 3.55C14.4999 3.35 13.7599 3.25 13.1199 3.25Z" fill="black"/>
<path d="M8.33005 22.25C5.76005 22.25 4.12005 20.71 3.07005 17.46L1.79005 13.51C0.370052 9.11 1.64005 6.63 6.02005 5.21L7.60005 4.7C8.12005 4.54 8.51005 4.43 8.86005 4.37C9.15005 4.31 9.43005 4.42 9.60005 4.65C9.77005 4.88 9.80005 5.18 9.68005 5.44C9.42005 5.97 9.19005 6.64 9.00005 7.48L8.02005 11.67C7.13005 15.45 8.16005 17.1 11.9401 18L13.6201 18.4C14.1601 18.53 14.6701 18.61 15.1301 18.65C15.4501 18.68 15.7101 18.9 15.8001 19.21C15.8801 19.52 15.7601 19.84 15.5001 20.02C14.8401 20.47 14.0101 20.85 12.9601 21.19L11.3801 21.71C10.2301 22.07 9.23005 22.25 8.33005 22.25ZM7.78005 6.22L6.49005 6.64C2.92005 7.79 2.07005 9.47001 3.22005 13.05L4.50005 17C5.66005 20.57 7.34005 21.43 10.9101 20.28L12.4901 19.76C12.5501 19.74 12.6001 19.72 12.6601 19.7L11.6001 19.45C6.99005 18.36 5.48005 15.92 6.56005 11.32L7.54005 7.13C7.61005 6.81 7.69005 6.5 7.78005 6.22Z" fill="black"/>
<path d="M17.49 10.51C17.43 10.51 17.37 10.5 17.3 10.49L12.45 9.26001C12.05 9.16001 11.81 8.75001 11.91 8.35001C12.01 7.95001 12.42 7.71001 12.82 7.81001L17.67 9.04001C18.07 9.14001 18.31 9.55001 18.21 9.95001C18.13 10.28 17.82 10.51 17.49 10.51Z" fill="black"/>
<path d="M14.56 13.89C14.5 13.89 14.44 13.88 14.37 13.87L11.46 13.13C11.06 13.03 10.82 12.62 10.92 12.22C11.02 11.82 11.43 11.58 11.83 11.68L14.74 12.42C15.14 12.52 15.38 12.93 15.28 13.33C15.2 13.67 14.9 13.89 14.56 13.89Z" fill="black"/>
</svg>
